<?xml version="1.0" encoding="UTF-8" standalone="no"?>
<!-- Created with Inkscape (http://www.inkscape.org/) -->

<svg
   xmlns:dc="http://purl.org/dc/elements/1.1/"
   xmlns:cc="http://creativecommons.org/ns#"
   xmlns:rdf="http://www.w3.org/1999/02/22-rdf-syntax-ns#"
   xmlns:svg="http://www.w3.org/2000/svg"
   xmlns="http://www.w3.org/2000/svg"
   xmlns:sodipodi="http://sodipodi.sourceforge.net/DTD/sodipodi-0.dtd"
   xmlns:inkscape="http://www.inkscape.org/namespaces/inkscape"
   id="svg3215"
   height="22"
   width="22"
   version="1.0"
   inkscape:version="0.48.5 r10040"
   sodipodi:docname="level4.svg">
  <defs
     id="defs5706" />
  <sodipodi:namedview
     pagecolor="#ffffff"
     bordercolor="#666666"
     borderopacity="1"
     objecttolerance="10"
     gridtolerance="10"
     guidetolerance="10"
     inkscape:pageopacity="0"
     inkscape:pageshadow="2"
     inkscape:window-width="1440"
     inkscape:window-height="879"
     id="namedview5704"
     showgrid="false"
     inkscape:zoom="27.812867"
     inkscape:cx="14.452781"
     inkscape:cy="11.068298"
     inkscape:window-x="0"
     inkscape:window-y="21"
     inkscape:window-maximized="1"
     inkscape:current-layer="svg3215" />
  <metadata
     id="metadata12">
    <rdf:RDF>
      <cc:Work
         rdf:about="">
        <dc:format>image/svg+xml</dc:format>
        <dc:type
           rdf:resource="http://purl.org/dc/dcmitype/StillImage" />
        <dc:title />
      </cc:Work>
    </rdf:RDF>
  </metadata>
  <rect
     style="fill:#3c3c3c;fill-opacity:0.40000006;stroke:none"
     id="rect5708"
     width="18.013247"
     height="2.0134566"
     x="2.0134566"
     y="18.08095"
     ry="1.0067283" />
  <rect
     rx="1.0067283"
     style="fill:#3c3c3c;fill-opacity:0.40000006;stroke:none"
     id="rect5708-9-0"
     width="18.013247"
     height="2.0134566"
     x="1.9954814"
     y="14.018094"
     ry="1.0067283" />
  <rect
     rx="1.0067283"
     style="fill:#3c3c3c;fill-opacity:0.40000006;stroke:none"
     id="rect5708-9-5"
     width="18.013247"
     height="2.0134566"
     x="1.9864897"
     y="9.959713"
     ry="1.0067283" />
  <rect
     rx="1.0067283"
     style="fill:#3c3c3c;fill-opacity:0.40000006;stroke:none"
     id="rect5708-2-0"
     width="18.013247"
     height="2.0134566"
     x="1.9685134"
     y="5.8743644"
     ry="1.0067283" />
  <rect
     rx="1.0067283"
     style="fill:#3c3c3c;fill-opacity:0.40000006;stroke:none"
     id="rect5708-9-0-0-4"
     width="18.013247"
     height="2.0134566"
     x="1.9505384"
     y="1.8115076"
     ry="1.0067283" />
  <path
     style="fill:#ffff00;fill-opacity:0.40000006;stroke:none"
     d="M 2.7801462,20.036966 C 2.429226,19.941899 2.1838774,19.702498 2.080455,19.354237 c -0.067765,-0.228188 -0.067293,-0.323855 0.00276,-0.559752 0.07077,-0.238307 0.2931794,-0.487455 0.5369118,-0.601459 l 0.179773,-0.08409 8.2156219,0 8.215622,0 0.180526,0.08407 c 0.777739,0.362169 0.783513,1.439134 0.0096,1.788848 l -0.190116,0.08591 -8.143713,0.0068 c -6.3582325,0.0053 -8.1795754,-0.003 -8.3072858,-0.03756 z"
     id="path3096"
     inkscape:connector-curvature="0" />
  <path
     style="fill:#ffff00;fill-opacity:0.40000006;stroke:none"
     d="M 2.7437684,15.973991 C 2.5545228,15.922731 2.4038861,15.823543 2.2512245,15.649672 1.9063209,15.256848 1.9653455,14.602736 2.3762599,14.264026 2.6627061,14.027912 2.0042683,14.043814 11.070667,14.054051 l 8.232387,0.0093 0.143818,0.07775 c 0.588022,0.317881 0.7142,1.111249 0.250484,1.574965 -0.07491,0.07491 -0.210446,0.170537 -0.301201,0.212514 l -0.16501,0.07632 -8.16169,0.0068 c -6.3830617,0.0053 -8.1974289,-0.0029 -8.3256866,-0.03766 z"
     id="path3098"
     inkscape:connector-curvature="0" />
  <path
     style="fill:#ffff00;fill-opacity:0.40000006;stroke:none"
     d="M 2.7162461,11.906804 C 2.4192116,11.813803 2.172274,11.583085 2.0612643,11.294843 2.0384166,11.235518 2.0193104,11.08611 2.018806,10.962826 2.0171315,10.553537 2.2876553,10.167531 2.6666796,10.038384 2.8131207,9.9884869 3.7074638,9.982501 11.016185,9.982501 l 8.185497,0 0.225668,0.112767 c 0.351425,0.17561 0.533311,0.471883 0.537777,0.875984 0.0042,0.37759 -0.220142,0.728223 -0.572186,0.894401 l -0.161796,0.07637 -8.179667,0.0067 c -6.7944459,0.0056 -8.2060125,-0.0015 -8.3352319,-0.04197 z"
     id="path3100"
     inkscape:connector-curvature="0" />
  <path
     style="fill:#ffff00;fill-opacity:0.40000006;stroke:none"
     d="M 2.5834202,7.7764126 C 1.8056814,7.4142429 1.7999078,6.3372779 2.5738303,5.9875642 l 0.1901162,-0.085908 8.2156215,0 8.215622,0 0.161796,0.075211 c 0.08899,0.041366 0.213553,0.1189618 0.276811,0.1724348 0.141263,0.1194113 0.290069,0.4153365 0.320199,0.6367696 0.05127,0.3767936 -0.205406,0.8167098 -0.577663,0.9900554 l -0.181143,0.084351 -8.215622,0 -8.2156215,0 -0.1805263,-0.084066 z"
     id="path3102"
     inkscape:connector-curvature="0" />
  <path
     style="fill:#dfdbd2;fill-opacity:1;stroke:none"
     d="M 2.6738273,3.7648375 C 2.2598784,3.6383765 1.9819343,3.2546276 1.9819343,2.809562 c 0,-0.3876873 0.2210277,-0.7279324 0.581048,-0.894452 l 0.1650096,-0.076322 8.2156221,0 c 6.701036,0 8.240249,0.00872 8.349207,0.047321 0.203501,0.072088 0.473404,0.3350977 0.566891,0.5524141 0.0664,0.1543588 0.07807,0.2340813 0.06461,0.4415018 -0.009,0.1392204 -0.04416,0.3065721 -0.07807,0.3718925 -0.08462,0.1630328 -0.301065,0.3727068 -0.472487,0.4577012 -0.140463,0.069644 -0.267482,0.070808 -8.376225,0.076733 -4.5284799,0.00331 -8.2741532,-0.00637 -8.3237187,-0.021515 z"
     id="path3279"
     inkscape:connector-curvature="0" />
</svg>
